<?xml version="1.0" encoding="utf-8"?>
<!-- Generator: Adobe Illustrator 26.2.1, SVG Export Plug-In . SVG Version: 6.00 Build 0)  -->
<svg version="1.1" id="レイヤー_1" xmlns="http://www.w3.org/2000/svg" xmlns:xlink="http://www.w3.org/1999/xlink" x="0px"
	 y="0px" viewBox="0 0 16 16" style="enable-background:new 0 0 16 16;" xml:space="preserve">
<style type="text/css">
	.st0{fill:#FFFFFF;}
</style>
<path class="st0" d="M8.4,14.8c-0.7,0.4-0.7-0.2-0.6-0.4c0-0.1,0.1-0.6,0.1-0.6c0-0.2,0-0.5,0-0.6c-0.1-0.2-0.4-0.3-0.6-0.3
	c-3.4-0.4-5.9-2.8-5.9-5.6c0-3.1,3.1-5.6,7-5.6s7,2.5,7,5.6C15.3,10.8,11.6,13.1,8.4,14.8z M6.1,8.6c0-0.2-0.2-0.3-0.3-0.3h-1V6.1
	c0-0.2-0.2-0.3-0.3-0.3c-0.2,0-0.3,0.2-0.3,0.3v2.6C4.1,8.8,4.3,9,4.5,9h1.3C6,9,6.1,8.8,6.1,8.6z M7.1,6.1c0-0.2-0.2-0.3-0.3-0.3
	c-0.2,0-0.3,0.2-0.3,0.3v2.6C6.4,8.8,6.6,9,6.8,9C7,9,7.1,8.8,7.1,8.6V6.1z M10.2,6.1c0-0.2-0.2-0.3-0.3-0.3c-0.2,0-0.3,0.2-0.3,0.3
	v1.6L8.2,5.8C8.2,5.8,8.1,5.7,8,5.7c0,0-0.1,0-0.1,0c-0.1,0-0.2,0.2-0.2,0.3v2.6C7.6,8.8,7.8,9,8,9c0.2,0,0.3-0.2,0.3-0.3V7l1.3,1.8
	C9.7,8.9,9.8,9,9.9,9c0,0,0.1,0,0.1,0c0.1,0,0.2-0.2,0.2-0.3C10.2,8.6,10.2,6.1,10.2,6.1z M12.3,7h-1V6.4h1c0.2,0,0.3-0.2,0.3-0.3
	s-0.2-0.3-0.3-0.3H11c-0.2,0-0.3,0.2-0.3,0.3c0,0,0,0,0,0v1.3v0c0,0,0,0,0,0v1.3C10.7,8.8,10.8,9,11,9h1.3c0.2,0,0.3-0.2,0.3-0.3
	c0-0.2-0.2-0.3-0.3-0.3h-1V7.7h1c0.2,0,0.3-0.2,0.3-0.3C12.7,7.1,12.5,7,12.3,7L12.3,7z"/>
</svg>
