<?xml version="1.0" encoding="utf-8"?>
<!-- Generator: Adobe Illustrator 26.2.1, SVG Export Plug-In . SVG Version: 6.00 Build 0)  -->
<svg version="1.1" id="レイヤー_1" xmlns="http://www.w3.org/2000/svg" xmlns:xlink="http://www.w3.org/1999/xlink" x="0px"
	 y="0px" viewBox="0 0 16 16" style="enable-background:new 0 0 16 16;" xml:space="preserve">
<style type="text/css">
	.st0{fill:#FFFFFF;}
</style>
<path class="st0" d="M6.9,1.6C4,1.6,1.6,4,1.6,6.9s2.4,5.3,5.3,5.3c1.3,0,2.5-0.5,3.4-1.2l3.2,3.2c0.2,0.2,0.5,0.2,0.8,0
	c0.2-0.2,0.2-0.5,0-0.8c0,0,0,0,0,0l-3.2-3.2c0.8-0.9,1.2-2.1,1.2-3.4C12.3,4,9.9,1.6,6.9,1.6z M6.9,2.7c2.4,0,4.3,1.9,4.3,4.3
	s-1.9,4.3-4.3,4.3S2.7,9.3,2.7,6.9S4.6,2.7,6.9,2.7z"/>
</svg>
