<?xml version="1.0" encoding="utf-8"?>
<!-- Generator: Adobe Illustrator 26.2.1, SVG Export Plug-In . SVG Version: 6.00 Build 0)  -->
<svg version="1.1" id="レイヤー_1" xmlns="http://www.w3.org/2000/svg" xmlns:xlink="http://www.w3.org/1999/xlink" x="0px"
	 y="0px" viewBox="0 0 16 16" style="enable-background:new 0 0 16 16;" xml:space="preserve">
<style type="text/css">
	.st0{fill:#FFFFFF;}
</style>
<path class="st0" d="M14.9,3.7c-0.5,0.2-1.1,0.4-1.6,0.4c0.6-0.4,1-0.9,1.3-1.6c-0.5,0.3-1.2,0.6-1.8,0.7c-0.5-0.6-1.3-0.9-2.1-0.9
	c-1.6,0-2.8,1.3-2.8,2.8c0,0.2,0,0.4,0.1,0.6C5.5,5.7,3.4,4.6,2,2.9C1.8,3.3,1.6,3.8,1.6,4.3c0,1,0.5,1.9,1.3,2.4
	C2.4,6.7,2,6.5,1.6,6.3c0,0,0,0,0,0c0,1.4,1,2.5,2.3,2.8C3.7,9.2,3.4,9.3,3.2,9.3c-0.2,0-0.4,0-0.5-0.1c0.4,1.1,1.4,2,2.7,2
	c-1,0.8-2.2,1.2-3.5,1.2c-0.2,0-0.5,0-0.7,0c1.3,0.8,2.8,1.3,4.4,1.3c5.2,0,8.1-4.3,8.1-8.1c0-0.1,0-0.2,0-0.4
	C14.1,4.8,14.6,4.3,14.9,3.7z"/>
</svg>
